# xmcd CD database file
#
# Track frame offsets:
#	150
#	9682
#	23834
#	43187
#	65630
#	81018
#	99586
#	124893
#	144180
#	163520
#	184300
#	201655
#	221823
#	240336
#	262326
#	281429
#	293424
#
# Disc length: 4196 seconds
#
# Revision: 7
# Processed by: cddbd v1.4PL0 Copyright (c) Steve Scherf et al.
# Submitted via: CDex 1.40Release
#
DISCID=01106211
DTITLE=Destiny's Child - The Writing's On The Wall+
DYEAR=1999
DGENRE=Polka
TTITLE0=Intro (The Writing's On The Wall)
TTITLE1=So Good
TTITLE2=Bills, Bills, Bills
TTITLE3=Confessions
TTITLE4=Bug A Boo
TTITLE5=Temptation
TTITLE6=Now That She's Gone
TTITLE7=Where'd You Go
TTITLE8=Hey Ladies
TTITLE9=If You Leave
TTITLE10=Jumpin, Jumpin
TTITLE11=Say My Name
TTITLE12=She Can't Love You
TTITLE13=Stay
TTITLE14=Sweet Sixteen
TTITLE15=Outro (Amazing Grace)
TTITLE16=Get On The Bus
EXTD=YEAR: 1999 ID3G: 75
EXTT0=
EXTT1=
EXTT2=
EXTT3=
EXTT4=
EXTT5=
EXTT6=
EXTT7=
EXTT8=
EXTT9=
EXTT10=
EXTT11=
EXTT12=
EXTT13=
EXTT14=
EXTT15=
EXTT16=
PLAYORDER=
